<?xml version="1.0" encoding="UTF-8"?>
<mxfile host="app.diagrams.net" modified="2024-01-01T00:00:00.000Z" agent="draw.io" etag="xxx" version="22.1.11" type="device">
  <diagram name="AI智能分析流程" id="ai-analysis-flow">
    <mxGraphModel dx="1422" dy="794" grid="1" gridSize="10" guides="1" tooltips="1" connect="1" arrows="1" fold="1" page="1" pageScale="1" pageWidth="827" pageHeight="1169" math="0" shadow="0">
      <root>
        <mxCell id="0" />
        <mxCell id="1" parent="0" />
        
        <!-- 数据采集阶段 -->
        <mxCell id="data-collect" value="数据采集&#xa;·堆内存趋势&#xa;·GC频率&#xa;·线程状态" style="rounded=1;whiteSpace=wrap;html=1;fillColor=#dae8fc;strokeColor=#6c8ebf;fontSize=12;fontStyle=1;verticalAlign=top;spacingTop=10;" parent="1" vertex="1">
          <mxGeometry x="40" y="100" width="140" height="100" as="geometry" />
        </mxCell>
        
        <!-- 模式识别阶段 -->
        <mxCell id="pattern-recognition" value="模式识别&#xa;·异常模式&#xa;·时间关联&#xa;·业务关联" style="rounded=1;whiteSpace=wrap;html=1;fillColor=#fff2cc;strokeColor=#d6b656;fontSize=12;fontStyle=1;verticalAlign=top;spacingTop=10;" parent="1" vertex="1">
          <mxGeometry x="240" y="100" width="140" height="100" as="geometry" />
        </mxCell>
        
        <!-- 根因定位阶段 -->
        <mxCell id="root-cause" value="根因定位&#xa;·代码分析&#xa;·调用链追踪&#xa;·对象分析" style="rounded=1;whiteSpace=wrap;html=1;fillColor=#f8cecc;strokeColor=#b85450;fontSize=12;fontStyle=1;verticalAlign=top;spacingTop=10;" parent="1" vertex="1">
          <mxGeometry x="440" y="100" width="140" height="100" as="geometry" />
        </mxCell>
        
        <!-- 方案生成阶段 -->
        <mxCell id="solution-gen" value="方案生成&#xa;·修复建议&#xa;·优化方案&#xa;·预防措施" style="rounded=1;whiteSpace=wrap;html=1;fillColor=#e1d5e7;strokeColor=#9673a6;fontSize=12;fontStyle=1;verticalAlign=top;spacingTop=10;" parent="1" vertex="1">
          <mxGeometry x="640" y="100" width="140" height="100" as="geometry" />
        </mxCell>
        
        <!-- 流程箭头 -->
        <mxCell id="flow1" value="" style="edgeStyle=orthogonalEdgeStyle;rounded=0;orthogonalLoop=1;jettySize=auto;html=1;strokeWidth=3;fillColor=#dae8fc;strokeColor=#6c8ebf;" parent="1" source="data-collect" target="pattern-recognition" edge="1">
          <mxGeometry relative="1" as="geometry" />
        </mxCell>
        
        <mxCell id="flow2" value="" style="edgeStyle=orthogonalEdgeStyle;rounded=0;orthogonalLoop=1;jettySize=auto;html=1;strokeWidth=3;fillColor=#fff2cc;strokeColor=#d6b656;" parent="1" source="pattern-recognition" target="root-cause" edge="1">
          <mxGeometry relative="1" as="geometry" />
        </mxCell>
        
        <mxCell id="flow3" value="" style="edgeStyle=orthogonalEdgeStyle;rounded=0;orthogonalLoop=1;jettySize=auto;html=1;strokeWidth=3;fillColor=#f8cecc;strokeColor=#b85450;" parent="1" source="root-cause" target="solution-gen" edge="1">
          <mxGeometry relative="1" as="geometry" />
        </mxCell>
        
        <!-- 价值标签 -->
        <mxCell id="value1" value="实时监控" style="rounded=1;whiteSpace=wrap;html=1;fillColor=#d4edda;strokeColor=#28a745;fontSize=10;fontStyle=2;" parent="1" vertex="1">
          <mxGeometry x="70" y="240" width="80" height="30" as="geometry" />
        </mxCell>
        
        <mxCell id="value2" value="智能识别" style="rounded=1;whiteSpace=wrap;html=1;fillColor=#d4edda;strokeColor=#28a745;fontSize=10;fontStyle=2;" parent="1" vertex="1">
          <mxGeometry x="270" y="240" width="80" height="30" as="geometry" />
        </mxCell>
        
        <mxCell id="value3" value="精准定位" style="rounded=1;whiteSpace=wrap;html=1;fillColor=#d4edda;strokeColor=#28a745;fontSize=10;fontStyle=2;" parent="1" vertex="1">
          <mxGeometry x="470" y="240" width="80" height="30" as="geometry" />
        </mxCell>
        
        <mxCell id="value4" value="行动指导" style="rounded=1;whiteSpace=wrap;html=1;fillColor=#d4edda;strokeColor=#28a745;fontSize=10;fontStyle=2;" parent="1" vertex="1">
          <mxGeometry x="670" y="240" width="80" height="30" as="geometry" />
        </mxCell>
        
        <!-- 价值连接线 -->
        <mxCell id="value-flow1" value="" style="edgeStyle=orthogonalEdgeStyle;rounded=0;orthogonalLoop=1;jettySize=auto;html=1;strokeWidth=1;fillColor=#d4edda;strokeColor=#28a745;dashed=1;" parent="1" source="data-collect" target="value1" edge="1">
          <mxGeometry relative="1" as="geometry" />
        </mxCell>
        
        <mxCell id="value-flow2" value="" style="edgeStyle=orthogonalEdgeStyle;rounded=0;orthogonalLoop=1;jettySize=auto;html=1;strokeWidth=1;fillColor=#d4edda;strokeColor=#28a745;dashed=1;" parent="1" source="pattern-recognition" target="value2" edge="1">
          <mxGeometry relative="1" as="geometry" />
        </mxCell>
        
        <mxCell id="value-flow3" value="" style="edgeStyle=orthogonalEdgeStyle;rounded=0;orthogonalLoop=1;jettySize=auto;html=1;strokeWidth=1;fillColor=#d4edda;strokeColor=#28a745;dashed=1;" parent="1" source="root-cause" target="value3" edge="1">
          <mxGeometry relative="1" as="geometry" />
        </mxCell>
        
        <mxCell id="value-flow4" value="" style="edgeStyle=orthogonalEdgeStyle;rounded=0;orthogonalLoop=1;jettySize=auto;html=1;strokeWidth=1;fillColor=#d4edda;strokeColor=#28a745;dashed=1;" parent="1" source="solution-gen" target="value4" edge="1">
          <mxGeometry relative="1" as="geometry" />
        </mxCell>
        
        <!-- 标题 -->
        <mxCell id="title" value="AI智能分析流程" style="text;html=1;strokeColor=none;fillColor=none;align=center;verticalAlign=middle;whiteSpace=wrap;rounded=0;fontSize=18;fontStyle=1;" parent="1" vertex="1">
          <mxGeometry x="340" y="40" width="140" height="30" as="geometry" />
        </mxCell>
        
      </root>
    </mxGraphModel>
  </diagram>
</mxfile>
